#!OML:ASF E:\emotionWalksFemale\Project 1\Capture day 1\Session 1\Female1.ASF
:FULLY-SPECIFIED
:DEGREES
258
root 10.4693 14.9328 11.5042 36.8718 -78.7466 -32.6693
lowerback 13.8204 0.580437 -1.04065
upperback -3.72748 0.76553 1.64649
thorax -11.9235 0.510277 2.21221
lowerneck -8.22619 -5.72489 -6.29802
upperneck 6.11547 -7.47765 6.4006
head 3.64032 -3.57336 2.52419
rclavicle -1.51076e-014 -1.27222e-014
rhumerus -47.9018 4.11342 -74.1248
rradius 35.8321
rwrist 33.5349
rhand -6.77231 -50.8631
rfingers 7.12502
rthumb 19.0898 -439.946
lclavicle -1.51076e-014 -1.27222e-014
lhumerus -41.8893 5.0776 82.1898
lradius 30.7404
lwrist -31.5105
lhand 3.78143 -31.8532
lfingers 7.12502
lthumb 29.207 -4.12525
rfemur -17.6124 -0.10355 32.9814
rtibia 38.2187
rfoot -26.0237 -23.5051
rtoes 5.25041
lfemur -25.6632 -13.1453 -18.0947
ltibia 49.8139
lfoot -29.9098 11.1706
ltoes -25.9702
259
root 10.442 15.0246 11.4763 35.3831 -78.6786 -31.2317
lowerback 13.249 0.595645 -1.29714
upperback -3.81141 0.744924 1.67649
thorax -11.6809 0.51868 2.39546
lowerneck -8.17828 -5.809 -6.3929
upperneck 6.59661 -7.58824 6.21279
head 3.78136 -3.63678 2.46999
rclavicle -6.53505e-015 1.98785e-015
rhumerus -48.4258 4.2696 -74.5575
rradius 35.695
rwrist 33.7389
rhand -6.38689 -50.0333
rfingers 7.12502
rthumb 19.4604 -439.079
lclavicle -6.53505e-015 1.98785e-015
lhumerus -42.4065 4.33012 82.1876
lradius 30.9639
lwrist -30.1735
lhand 3.59349 -31.5307
lfingers 7.12502
lthumb 29.0275 -3.77164
rfemur -16.2268 0.623534 32.8371
rtibia 35.9477
rfoot -25.609 -24.1065
rtoes 3.65993
lfemur -24.5197 -13.3516 -18.1648
ltibia 47.7849
lfoot -29.1965 10.8999
ltoes -25.188
260
root 10.4202 15.1146 11.4839 33.3154 -78.9835 -29.0208
lowerback 12.5165 0.627403 -1.33708
upperback -3.96168 0.766919 1.50563
thorax -11.4112 0.522628 2.22665
lowerneck -8.07605 -5.79478 -6.53632
upperneck 7.08834 -7.56729 6.05703
head 3.91175 -3.63719 2.44371
rclavicle 2.20278e-014 1.35174e-014
rhumerus -48.8685 4.28586 -74.941
rradius 35.431
rwrist 34.1214
rhand -6.27405 -49.3447
rfingers 7.12502
rthumb 19.5689 -438.38
lclavicle 2.20278e-014 1.35174e-014
lhumerus -43.0141 3.33471 82.3154
lradius 31.3105
lwrist -28.6206
lhand 3.44723 -30.6531
lfingers 7.12502
lthumb 28.8878 -2.87015
rfemur -14.9457 1.17397 32.1554
rtibia 33.5464
rfoot -25.2433 -24.1463
rtoes 2.18132
lfemur -23.4747 -13.7014 -18.7347
ltibia 45.8095
lfoot -28.8959 10.5212
ltoes -20.7133
261
root 10.4023 15.1937 11.4789 32.5337 -79.141 -28.2267
lowerback 11.9893 0.671515 -1.23083
upperback -4.10933 0.838823 1.43283
thorax -11.2626 0.545166 2.07279
lowerneck -7.89787 -5.78273 -6.67678
upperneck 7.468 -7.55984 6.0064
head 4.00068 -3.64227 2.45147
rclavicle 2.45126e-014 3.18055e-014
rhumerus -49.2172 4.42308 -75.45
rradius 35.1206
rwrist 34.3432
rhand -6.13404 -48.8179
rfingers 7.12502
rthumb 19.7035 -437.839
lclavicle 2.45126e-014 3.18055e-014
lhumerus -43.6427 2.44299 82.2935
lradius 31.637
lwrist -27.3939
lhand 3.57179 -30.0126
lfingers 7.12502
lthumb 29.0068 -2.25005
rfemur -13.5195 1.87912 31.9052
rtibia 31.0888
rfoot -24.9266 -24.3188
rtoes 1.37443
lfemur -22.4282 -14.0414 -18.9118
ltibia 44.0004
lfoot -28.0201 10.6527
ltoes -20.3704
262
root 10.3845 15.2643 11.4694 32.1146 -79.1597 -27.9041
lowerback 11.5589 0.686121 -1.02519
upperback -4.21167 0.885863 1.36389
thorax -11.117 0.548869 1.87306
lowerneck -7.70315 -5.82349 -6.63447
upperneck 7.75883 -7.63725 5.90508
head 4.05636 -3.68762 2.41038
rclavicle 4.09372e-015 7.95139e-016
rhumerus -49.6124 4.88597 -76.1921
rradius 34.9768
rwrist 34.0687
rhand -5.84453 -47.7914
rfingers 7.12502
rthumb 19.9818 -436.784
lclavicle 4.09372e-015 7.95139e-016
lhumerus -44.1837 2.16595 81.7852
lradius 31.8577
lwrist -26.9601
lhand 3.89793 -30.016
lfingers 7.12502
lthumb 29.3182 -2.30743
rfemur -12.0343 2.52822 31.8607
rtibia 28.7237
rfoot -24.8083 -24.2452
rtoes 2.16224
lfemur -21.3448 -14.5013 -18.9222
ltibia 42.2821
lfoot -27.0723 10.7304
ltoes -19.9953
263
root 10.3689 15.3248 11.4616 30.6521 -79.264 -26.5105
lowerback 11.0584 0.655603 -1.0243
upperback -4.26393 0.832571 1.2282
thorax -10.8713 0.515798 1.73835
lowerneck -7.58879 -5.85343 -6.73586
upperneck 8.07475 -7.68982 5.90256
head 4.14083 -3.71873 2.42136
rclavicle -3.80673e-014 -5.56597e-015
rhumerus -49.9827 5.34594 -76.9792
rradius 34.8621
rwrist 33.8255
rhand -5.60011 -46.3659
rfingers 7.12502
rthumb 20.2167 -435.334
lclavicle -3.80673e-014 -5.56597e-015
lhumerus -44.671 2.03496 81.1318
lradius 32.1591
lwrist -26.3724
lhand 4.30127 -29.9001
lfingers 7.12502
lthumb 29.7033 -2.25954
rfemur -10.5619 3.20264 31.6201
rtibia 26.3838
rfoot -24.4493 -24.3965
rtoes 1.62353
lfemur -20.301 -14.8775 -19.2004
ltibia 40.6667
lfoot -26.4623 10.8974
ltoes -18.9636
264
root 10.3479 15.3788 11.4633 28.7259 -79.4953 -24.6642
lowerback 10.4232 0.674473 -1.03477
upperback -4.2472 0.843232 1.06958
thorax -10.4712 0.512098 1.57344
lowerneck -7.5207 -5.8754 -6.92563
upperneck 8.31394 -7.71798 5.93266
head 4.21285 -3.73815 2.45763
rclavicle -1.81143e-014 1.98785e-015
rhumerus -50.3232 5.5636 -77.5478
rradius 34.7674
rwrist 33.762
rhand -5.37893 -45.7755
rfingers 7.12502
rthumb 20.4293 -434.721
lclavicle -1.81143e-014 1.98785e-015
lhumerus -45.0628 1.59832 80.7522
lradius 32.4678
lwrist -25.1214
lhand 4.37786 -29.3056
lfingers 7.12502
lthumb 29.7764 -1.67811
rfemur -9.12441 4.12409 31.2123
rtibia 24.1477
rfoot -23.6807 -25.2695
rtoes -2.48199
lfemur -19.2205 -15.3594 -19.7085
ltibia 39.1332
lfoot -25.8338 11.3511
ltoes -18.6284
265
root 10.3211 15.4304 11.4727 27.3611 -79.762 -23.5774
lowerback 9.91631 0.722111 -0.867994
upperback -4.16868 0.922195 0.951373
thorax -10.08 0.531662 1.34027
lowerneck -7.48591 -5.85249 -7.01753
upperneck 8.59588 -7.68913 5.88805
head 4.29302 -3.72992 2.45842
rclavicle 1.31105e-014 6.36111e-015
rhumerus -50.6785 5.89936 -78.0707
rradius 34.8162
rwrist 33.4616
rhand -5.1559 -45.7743
rfingers 7.12502
rthumb 20.6436 -434.697
lclavicle 1.31105e-014 6.36111e-015
lhumerus -45.4379 1.42918 80.306
lradius 32.6636
lwrist -23.864
lhand 4.24811 -28.6041
lfingers 7.12502
lthumb 29.6525 -0.954473
rfemur -7.54908 5.35477 30.8471
rtibia 22.1028
rfoot -24.1419 -25.5308
rtoes -2.62682
lfemur -17.9348 -16.0056 -20.1972
ltibia 37.7057
lfoot -25.2894 11.6026
ltoes -16.5205
266
root 10.295 15.4739 11.4813 26.5148 -80.0892 -23.0625
lowerback 9.48282 0.747532 -0.63404
upperback -4.10499 0.982465 0.876149
thorax -9.74842 0.54107 1.12042
lowerneck -7.36796 -5.81007 -7.30752
upperneck 8.90422 -7.63254 5.9687
head 4.37825 -3.71025 2.53311
rclavicle -1.01318e-014 1.07344e-014
rhumerus -51.102 6.59408 -78.7245
rradius 34.962
rwrist 32.8013
rhand -5.1572 -45.6681
rfingers 7.12502
rthumb 20.6424 -434.59
lclavicle -1.01318e-014 1.07344e-014
lhumerus -45.9514 1.61463 79.6129
lradius 32.9876
lwrist -22.6743
lhand 5.23856 -28.3645
lfingers 7.12502
lthumb 30.5975 -0.887103
rfemur -5.94343 6.62702 30.5652
rtibia 20.1083
rfoot -25.0548 -25.2135
rtoes -0.566304
lfemur -16.7074 -16.6751 -20.6222
ltibia 36.484
lfoot -24.5285 12.3412
ltoes -16.6315
267
root 10.287 15.5049 11.4753 25.0601 -80.2259 -21.4893
lowerback 8.92412 0.766009 -0.645545
upperback -4.20529 0.996285 0.777768
thorax -9.52674 0.543747 1.02455
lowerneck -7.26573 -5.84818 -7.32806
upperneck 9.17056 -7.68386 5.79214
head 4.44002 -3.74797 2.47836
rclavicle -1.24303e-014 3.57812e-015
rhumerus -51.5881 7.1925 -79.4187
rradius 35.208
rwrist 31.815
rhand -5.19265 -45.9087
rfingers 7.12502
rthumb 20.6083 -434.835
lclavicle -1.24303e-014 3.57812e-015
lhumerus -46.4189 1.34496 79.1289
lradius 33.4327
lwrist -21.1377
lhand 6.64833 -28.2503
lfingers 7.12502
lthumb 31.9409 -1.03251
rfemur -4.9682 7.63896 30.341
rtibia 18.2053
rfoot -24.5076 -25.8057
rtoes -4.20172
lfemur -16.184 -17.2995 -20.8964
ltibia 35.4349
lfoot -23.5887 12.8055
ltoes -16.6178
268
root 10.2953 15.534 11.4572 23.453 -80.0725 -19.1894
lowerback 8.122 0.719727 -0.787184
upperback -4.50446 0.901851 0.639738
thorax -9.37819 0.500209 0.980051
lowerneck -7.23626 -5.92244 -7.05887
upperneck 9.41793 -7.79424 5.47121
head 4.49479 -3.81126 2.32727
rclavicle -1.26104e-015 -1.03368e-014
rhumerus -52.0715 7.72847 -80.1579
rradius 35.5529
rwrist 30.6301
rhand -5.08885 -46.1593
rfingers 7.12502
rthumb 20.708 -435.075
lclavicle -1.26104e-015 -1.03368e-014
lhumerus -46.7684 0.622094 78.8149
lradius 33.7556
lwrist -19.3134
lhand 7.29128 -27.9991
lfingers 7.12502
lthumb 32.5529 -0.905617
rfemur -4.79688 8.43071 30.1931
rtibia 16.4268
rfoot -22.5214 -27.2404
rtoes -12.589
lfemur -16.5026 -17.901 -20.85
ltibia 34.5822
lfoot -23.2015 12.1353
ltoes -11.2585
269
root 10.2837 15.5704 11.4541 22.3921 -80.2441 -18.0579
lowerback 7.5741 0.715485 -0.638363
upperback -4.56913 0.901837 0.501708
thorax -9.11978 0.484302 0.754904
lowerneck -7.18554 -5.91465 -7.14963
upperneck 9.65752 -7.79519 5.51216
head 4.56501 -3.8148 2.35283
rclavicle 5.49143e-015 4.37326e-015
rhumerus -52.4023 8.19726 -80.7192
rradius 35.7635
rwrist 29.78
rhand -4.93878 -46.2657
rfingers 7.12502
rthumb 20.8522 -435.165
lclavicle 5.49143e-015 4.37326e-015
lhumerus -47.1954 0.235241 78.3199
lradius 34.0993
lwrist -17.6265
lhand 7.62197 -27.8446
lfingers 7.12502
lthumb 32.8675 -0.816489
rfemur -3.78124 10.1454 30.021
rtibia 14.8351
rfoot -23.4752 -27.0334
rtoes -10.2517
lfemur -15.9922 -18.8309 -21.0202
ltibia 33.8247
lfoot -22.9456 12.5374
ltoes -10.0833
270
root 10.278 15.5941 11.4496 21.1377 -80.3793 -16.6833
lowerback 7.0743 0.679688 -0.559569
upperback -4.6289 0.854918 0.419494
thorax -8.88633 0.452303 0.635504
lowerneck -7.2069 -5.8282 -7.47324
upperneck 9.90641 -7.67162 5.67169
head 4.6558 -3.75776 2.45911
rclavicle -1.3977e-014 -1.59028e-015
rhumerus -52.4996 8.36317 -80.9952
rradius 35.8171
rwrist 29.2059
rhand -4.52261 -46.4094
rfingers 7.12502
rthumb 21.252 -435.264
lclavicle -1.3977e-014 -1.59028e-015
lhumerus -47.5971 0.212181 77.7264
lradius 34.5528
lwrist -16.1183
lhand 8.08631 -27.6784
lfingers 7.12502
lthumb 33.3091 -0.743874
rfemur -3.0412 12.3455 29.8673
rtibia 13.4857
rfoot -24.2607 -27.7719
rtoes -6.93533
lfemur -15.585 -19.8381 -21.1309
ltibia 33.1456
lfoot -22.8283 12.9144
ltoes -8.98753
